<?xml version="1.0" encoding="UTF-8"?>
<svg width="37px" height="36px" viewBox="0 0 37 36" version="1.1" xmlns="http://www.w3.org/2000/svg" xmlns:xlink="http://www.w3.org/1999/xlink">
    <!-- Generator: Sketch 55.2 (78181) - https://sketchapp.com -->
    <title>Progress</title>
    <desc>Created with Sketch.</desc>
    <g id="Symbols" stroke="none" stroke-width="1" fill="none" fill-rule="evenodd" stroke-linecap="round" stroke-linejoin="round">
        <g id="Tab-stats-inactive" transform="translate(-65.000000, -6.000000)" stroke="#929DA5" stroke-width="2.5">
            <g id="Progress" transform="translate(65.000000, 7.000000)">
                <g id="Analytics-Bars" transform="translate(0.500000, 0.000000)">
                    <path d="M7,15.4166667 L2,15.4166667 C1.30964406,15.4166667 0.75,15.9763107 0.75,16.6666667 L0.75,32.9166667 L8.25,32.9166667 L8.25,16.6666667 C8.25,15.9763107 7.69035594,15.4166667 7,15.4166667 Z" id="Path"></path>
                    <path d="M20.5,0.416666667 L15.5,0.416666667 C14.8096441,0.416666667 14.25,0.976310729 14.25,1.66666667 L14.25,32.9166667 L21.75,32.9166667 L21.75,1.66666667 C21.75,0.976310729 21.1903559,0.416666667 20.5,0.416666667 Z" id="Path"></path>
                    <path d="M34,7.91666667 L29,7.91666667 C28.3096441,7.91666667 27.75,8.47631073 27.75,9.16666667 L27.75,32.9166667 L35.25,32.9166667 L35.25,9.16666667 C35.25,8.47631073 34.6903559,7.91666667 34,7.91666667 Z" id="Path"></path>
                </g>
            </g>
        </g>
    </g>
</svg>