<?xml version="1.0" encoding="utf-8"?>
<!-- Svg Vector Icons : http://www.onlinewebfonts.com/icon -->
<!DOCTYPE svg PUBLIC "-//W3C//DTD SVG 1.1//EN" "http://www.w3.org/Graphics/SVG/1.1/DTD/svg11.dtd">
<svg version="1.1" xmlns="http://www.w3.org/2000/svg" xmlns:xlink="http://www.w3.org/1999/xlink" x="0px" y="0px" viewBox="0 0 1000 1000" enable-background="new 0 0 1000 1000" xml:space="preserve">
<metadata> Svg Vector Icons : http://www.onlinewebfonts.com/icon </metadata>
<g><path fill="#929DA5" d="M499.9,508.9c111.2,0,201.7-90.4,201.7-201.7c0-111.2-90.4-201.6-201.7-201.6c-111.2,0-201.6,90.4-201.6,201.6C298.4,418.4,388.9,508.9,499.9,508.9L499.9,508.9L499.9,508.9z M499.9,134.5c95.2,0,172.6,77.4,172.6,172.6s-77.4,172.6-172.6,172.6c-95.2,0-172.5-77.4-172.5-172.6S404.8,134.5,499.9,134.5L499.9,134.5L499.9,134.5z M804.1,440.6c-27.5,0-53.4-9.2-74.8-26.8c-6.2-5.1-15.3-4.2-20.4,1.9c-5.1,6.2-4.2,15.3,1.9,20.4c26.2,21.4,59.2,33.3,93.1,33.3c81.3,0,147.4-66.1,147.4-147.3c0-81.2-66.1-147.3-147.4-147.3c-33.9,0-67,11.8-93.3,33.3c-6.2,5.1-7,14.2-1.9,20.4c5.1,6.2,14.3,7.1,20.4,2.1c21.2-17.1,47.7-26.5,75-26.5c65.2,0,118.3,53,118.3,118.2S869.3,440.6,804.1,440.6L804.1,440.6L804.1,440.6z M708.7,614.1c-52.5-87.3-162.5-76.4-165.6-76h-89.6c-3.9-0.1-92.5-2.3-144.4,72.4c-28.8,41.3-71.2,200-86.1,266.2c-1.8,7.8,3.1,15.6,10.9,17.4c7.8,1.8,15.6-3.1,17.3-10.9c15.7-69.4,57-220.6,81.7-255.9c42.7-61.6,119.1-59.9,120.2-60l91.7-0.1c0.9-0.1,96.9-9.4,139.5,62.6c0.4,0.5,0.6,1,1.2,1.7c26.1,33,69.9,181.5,86,251.7c1.6,6.8,7.5,11.3,14.2,11.3c1,0,2.2-0.1,3.2-0.4c7.8-1.8,12.7-9.6,10.9-17.4C786.9,821.6,742,657.6,708.7,614.1L708.7,614.1L708.7,614.1z M195.8,469.5c33.9,0,67-11.8,93.3-33.3c6.2-5.1,7.1-14.3,2.1-20.4c-5.1-6.2-14.2-7.1-20.4-1.9c-21.3,17.5-47.2,26.8-74.8,26.8c-65.2,0-118.3-53.1-118.3-118.3c0-65.2,53.1-118.2,118.3-118.2c27.7,0,53.5,9.2,74.8,26.8c6.2,5.1,15.3,4.2,20.4-2.1c5.1-6.2,4.2-15.3-2.1-20.4C263,187,229.9,175.2,196,175.2c-81.3,0-147.4,66.1-147.4,147.3C48.4,403.4,114.5,469.5,195.8,469.5L195.8,469.5L195.8,469.5z M989.6,673.3c-15.5-69.8-31-116.3-46.4-138.3c-38.1-54.9-103.4-53.1-105.7-53.1l-62.4,0.1c-3.1-0.4-78.1-7.8-118.2,49c-4.7,6.5-3.1,15.6,3.5,20.3c6.5,4.5,15.6,3.1,20.3-3.5c30.1-42.6,90.7-36.9,92.9-36.8H838c0.5-0.4,52.1-1.4,81.3,40.7c9.1,13,23.6,45.7,41.8,127.9c1.6,6.8,7.5,11.4,14.2,11.4c1,0,2.1-0.1,3.1-0.4C986.5,688.9,991.4,681.1,989.6,673.3L989.6,673.3L989.6,673.3z M322.7,553.2c4.2,6.9,13,9.2,19.9,5.1c6.9-4,9.2-13,5.1-19.9c-38.4-64.8-119.5-56.8-121.3-56.4H163c-2.6,0-68.1-1.8-106.3,53.1c-15.5,22.2-31,68.7-46.4,138.3c-1.7,7.8,3.2,15.6,11,17.3c1,0.3,2.1,0.4,3.1,0.4c6.6,0,12.7-4.7,14.2-11.4c14.2-64,29-109.5,41.8-127.9c29-41.7,79.1-40.7,81.8-40.7l65.5-0.1C228.4,510.8,293.9,504.6,322.7,553.2L322.7,553.2L322.7,553.2z"/></g>
</svg>
